<svg xmlns="http://www.w3.org/2000/svg" width="32" height="32" viewBox="0 0 32 32" fill="none">
  <rect width="32" height="32" rx="8" fill="#F5E642"/>
  <path d="M10 11.5C10 10.6716 10.6716 10 11.5 10H14.5C15.3284 10 16 10.6716 16 11.5V20.5C16 21.3284 15.3284 22 14.5 22H11.5C10.6716 22 10 21.3284 10 20.5V11.5Z" fill="#0D0D0D"/>
  <path d="M16 11.5C16 10.6716 16.6716 10 17.5 10H20.5C21.3284 10 22 10.6716 22 11.5V20.5C22 21.3284 21.3284 22 20.5 22H17.5C16.6716 22 16 21.3284 16 20.5V11.5Z" fill="#0D0D0D"/>
  <circle cx="13" cy="16" r="1.5" fill="#F5E642"/>
  <circle cx="19" cy="16" r="1.5" fill="#F5E642"/>
</svg>
