<svg width="100" height="100" viewBox="0 0 100 100" fill="none" xmlns="http://www.w3.org/2000/svg">
<g clip-path="url(#clip0_9_1088)">
<path d="M25 0H50V25L25 50H0V25L25 0Z" fill="#0E448C"/>
<path d="M25 50H50V75L25 100H0V75L25 50Z" fill="#08A887"/>
<path d="M100 25C99.9993 18.3698 97.365 12.0114 92.6763 7.32351C87.9877 2.6356 81.6289 0.00217096 74.9987 0.00250247C68.3686 0.00283398 62.01 2.6369 57.3219 7.32527C52.6337 12.0136 50 18.3723 50 25.0025C50 31.6327 52.6337 37.9914 57.3219 42.6797C62.01 47.3681 68.3686 50.0022 74.9987 50.0025C81.6289 50.0028 87.9877 47.3694 92.6763 42.6815C97.365 37.9936 99.9993 31.6352 100 25.005V25Z" fill="#FFD313"/>
<path d="M100 75C99.9993 68.3698 97.365 62.0114 92.6763 57.3235C87.9877 52.6356 81.6289 50.0022 74.9987 50.0025C68.3686 50.0028 62.01 52.6369 57.3219 57.3253C52.6337 62.0136 50 68.3723 50 75.0025C50 81.6327 52.6337 87.9914 57.3219 92.6797C62.01 97.3681 68.3686 100.002 74.9987 100.003C81.6289 100.003 87.9877 97.3694 92.6763 92.6815C97.365 87.9936 99.9993 81.6352 100 75.005V75Z" fill="#F61710"/>
</g>
<defs>
<clipPath id="clip0_9_1088">
<rect width="100" height="100" fill="white"/>
</clipPath>
</defs>
</svg>
