<svg width="100" height="100" viewBox="0 0 100 100" fill="none" xmlns="http://www.w3.org/2000/svg">
<g clip-path="url(#clip0_9_866)">
<path d="M0 0H25C29.9445 0 34.778 1.46622 38.8893 4.21326C43.0005 6.96029 46.2048 10.8648 48.097 15.4329C49.9892 20.0011 50.4843 25.0277 49.5196 29.8773C48.555 34.7268 46.174 39.1814 42.6777 42.6777C39.1814 46.174 34.7268 48.555 29.8773 49.5196C25.0277 50.4843 20.0011 49.9892 15.4329 48.097C10.8648 46.2048 6.96029 43.0005 4.21326 38.8893C1.46622 34.778 0 29.9445 0 25L0 0Z" fill="#08A887"/>
<path d="M50 100H25C20.0555 100 15.222 98.5338 11.1108 95.7868C6.99953 93.0397 3.79521 89.1353 1.90302 84.5671C0.0108321 79.9989 -0.484251 74.9723 0.480379 70.1228C1.44501 65.2732 3.82603 60.8187 7.32234 57.3223C10.8187 53.826 15.2732 51.445 20.1228 50.4804C24.9723 49.5157 29.9989 50.0108 34.5671 51.903C39.1353 53.7952 43.0397 56.9995 45.7868 61.1108C48.5338 65.222 50 70.0555 50 75V100Z" fill="#0E448C"/>
<path d="M100 50H75C70.0555 50 65.222 48.5338 61.1108 45.7868C56.9995 43.0397 53.7952 39.1353 51.903 34.5671C50.0108 29.9989 49.5157 24.9723 50.4804 20.1228C51.445 15.2732 53.826 10.8187 57.3223 7.32234C60.8187 3.82603 65.2732 1.44501 70.1228 0.480379C74.9723 -0.484251 79.9989 0.0108321 84.5671 1.90302C89.1353 3.79521 93.0397 6.99953 95.7868 11.1108C98.5338 15.222 100 20.0555 100 25V50Z" fill="#FFD313"/>
<path d="M100 50V75C100 79.9445 98.5338 84.778 95.7868 88.8893C93.0397 93.0005 89.1353 96.2048 84.5671 98.097C79.9989 99.9892 74.9723 100.484 70.1228 99.5196C65.2732 98.555 60.8187 96.174 57.3223 92.6777C53.826 89.1814 51.445 84.7268 50.4804 79.8773C49.5157 75.0277 50.0108 70.0011 51.903 65.4329C53.7952 60.8648 56.9995 56.9603 61.1108 54.2133C65.222 51.4662 70.0555 50 75 50H100Z" fill="#F61710"/>
</g>
<defs>
<clipPath id="clip0_9_866">
<rect width="100" height="100" fill="white"/>
</clipPath>
</defs>
</svg>
