<svg width="100" height="100" viewBox="0 0 100 100" fill="none" xmlns="http://www.w3.org/2000/svg">
<g clip-path="url(#clip0_9_1187)">
<path d="M0 0H25C29.9445 0 34.778 1.46622 38.8893 4.21326C43.0005 6.96029 46.2048 10.8648 48.097 15.4329C49.9892 20.0011 50.4843 25.0277 49.5196 29.8773C48.555 34.7268 46.174 39.1814 42.6777 42.6777C39.1814 46.174 34.7268 48.555 29.8773 49.5196C25.0277 50.4843 20.0011 49.9892 15.4329 48.097C10.8648 46.2048 6.96029 43.0005 4.21326 38.8893C1.46622 34.778 0 29.9445 0 25L0 0Z" fill="#0E448C"/>
<path d="M0 50H25C29.9445 50 34.778 51.4662 38.8893 54.2133C43.0005 56.9603 46.2048 60.8648 48.097 65.4329C49.9892 70.0011 50.4843 75.0277 49.5196 79.8773C48.555 84.7268 46.174 89.1814 42.6777 92.6777C39.1814 96.174 34.7268 98.555 29.8773 99.5196C25.0277 100.484 20.0011 99.9892 15.4329 98.097C10.8648 96.2048 6.96029 93.0005 4.21326 88.8893C1.46622 84.778 0 79.9445 0 75L0 50Z" fill="#F61710"/>
<path d="M50 50L100 100H50V50Z" fill="#08A887"/>
<path d="M50 50V25C50 20.0555 51.4662 15.222 54.2133 11.1108C56.9603 6.99953 60.8648 3.79521 65.4329 1.90302C70.0011 0.0108321 75.0277 -0.484251 79.8773 0.480379C84.7268 1.44501 89.1814 3.82603 92.6777 7.32234C96.174 10.8187 98.555 15.2732 99.5196 20.1228C100.484 24.9723 99.9892 29.9989 98.097 34.5671C96.2048 39.1353 93.0005 43.0397 88.8893 45.7868C84.778 48.5338 79.9445 50 75 50H50Z" fill="#FFD313"/>
</g>
<defs>
<clipPath id="clip0_9_1187">
<rect width="100" height="100" fill="white"/>
</clipPath>
</defs>
</svg>
