<svg width="100" height="100" viewBox="0 0 100 100" fill="none" xmlns="http://www.w3.org/2000/svg">
<g clip-path="url(#clip0_9_1025)">
<path d="M50 50H25C20.0555 50 15.222 48.5338 11.1108 45.7868C6.99953 43.0397 3.79521 39.1353 1.90302 34.5671C0.0108321 29.9989 -0.484251 24.9723 0.480379 20.1228C1.44501 15.2732 3.82603 10.8187 7.32234 7.32234C10.8187 3.82603 15.2732 1.44501 20.1228 0.480379C24.9723 -0.484251 29.9989 0.0108321 34.5671 1.90302C39.1353 3.79521 43.0397 6.99953 45.7868 11.1108C48.5338 15.222 50 20.0555 50 25V50Z" fill="#FFD313"/>
<path d="M0 100L0 75C0 70.0555 1.46622 65.222 4.21326 61.1108C6.96029 56.9995 10.8648 53.7952 15.4329 51.903C20.0011 50.0108 25.0277 49.5157 29.8773 50.4804C34.7268 51.445 39.1814 53.826 42.6777 57.3223C46.174 60.8187 48.555 65.2732 49.5196 70.1228C50.4843 74.9723 49.9892 79.9989 48.097 84.5671C46.2048 89.1353 43.0005 93.0397 38.8893 95.7868C34.778 98.5338 29.9445 100 25 100H0Z" fill="#0E448C"/>
<path d="M100 0V25C100 29.9445 98.5338 34.778 95.7868 38.8893C93.0397 43.0005 89.1353 46.2048 84.5671 48.097C79.9989 49.9892 74.9723 50.4843 70.1228 49.5196C65.2732 48.555 60.8187 46.174 57.3223 42.6777C53.826 39.1814 51.445 34.7268 50.4804 29.8773C49.5157 25.0277 50.0108 20.0011 51.903 15.4329C53.7952 10.8648 56.9995 6.96029 61.1108 4.21326C65.222 1.46622 70.0555 0 75 0L100 0Z" fill="#F61710"/>
<path d="M50 50H75C79.9445 50 84.778 51.4662 88.8893 54.2133C93.0005 56.9603 96.2048 60.8648 98.097 65.4329C99.9892 70.0011 100.484 75.0277 99.5196 79.8773C98.555 84.7268 96.174 89.1814 92.6777 92.6777C89.1814 96.174 84.7268 98.555 79.8773 99.5196C75.0277 100.484 70.0011 99.9892 65.4329 98.097C60.8648 96.2048 56.9603 93.0005 54.2133 88.8893C51.4662 84.778 50 79.9445 50 75V50Z" fill="#08A887"/>
</g>
<defs>
<clipPath id="clip0_9_1025">
<rect width="100" height="100" fill="white"/>
</clipPath>
</defs>
</svg>
