<svg width="100" height="100" viewBox="0 0 100 100" fill="none" xmlns="http://www.w3.org/2000/svg">
<g clip-path="url(#clip0_9_812)">
<path d="M75 0L100 25L75 50L50 25L75 0Z" fill="#FFD313"/>
<path d="M0 50H25C29.9445 50 34.778 51.4662 38.8893 54.2133C43.0005 56.9603 46.2048 60.8648 48.097 65.4329C49.9892 70.0011 50.4843 75.0277 49.5196 79.8773C48.555 84.7268 46.174 89.1814 42.6777 92.6777C39.1814 96.174 34.7268 98.555 29.8773 99.5196C25.0277 100.484 20.0011 99.9892 15.4329 98.097C10.8648 96.2048 6.96029 93.0005 4.21326 88.8893C1.46622 84.778 0 79.9445 0 75L0 50Z" fill="#F61710"/>
<path d="M50 0V25C50 29.9445 48.5338 34.778 45.7867 38.8893C43.0397 43.0005 39.1352 46.2048 34.5671 48.097C29.9989 49.9892 24.9723 50.4843 20.1227 49.5196C15.2732 48.555 10.8186 46.174 7.32233 42.6777C3.82601 39.1814 1.44499 34.7268 0.480364 29.8773C-0.484267 25.0277 0.0108168 20.0011 1.90301 15.4329C3.7952 10.8648 6.99951 6.96029 11.1107 4.21326C15.222 1.46622 20.0555 0 25 0L50 0Z" fill="#08A887"/>
<path d="M100 100H75C70.0555 100 65.222 98.5338 61.1108 95.7868C56.9995 93.0397 53.7952 89.1353 51.903 84.5671C50.0108 79.9989 49.5157 74.9723 50.4804 70.1228C51.445 65.2732 53.826 60.8187 57.3223 57.3223C60.8187 53.826 65.2732 51.445 70.1228 50.4804C74.9723 49.5157 79.9989 50.0108 84.5671 51.903C89.1353 53.7952 93.0397 56.9995 95.7868 61.1108C98.5338 65.222 100 70.0555 100 75V100Z" fill="#0E448C"/>
</g>
<defs>
<clipPath id="clip0_9_812">
<rect width="100" height="100" fill="white"/>
</clipPath>
</defs>
</svg>
