<svg width="100" height="100" viewBox="0 0 100 100" fill="none" xmlns="http://www.w3.org/2000/svg">
<g clip-path="url(#clip0_9_1058)">
<path d="M50 24.9999C49.9993 18.3697 47.3649 12.0114 42.6763 7.32345C37.9877 2.63554 31.6289 0.00210993 24.9988 0.00244144C18.3686 0.00277295 12.01 2.63684 7.32189 7.32521C2.63375 12.0136 0 18.3722 0 25.0024C0 31.6326 2.63375 37.9913 7.32189 42.6797C12.01 47.368 18.3686 50.0021 24.9988 50.0024C31.6289 50.0028 37.9877 47.3693 42.6763 42.6814C47.3649 37.9935 49.9993 31.6351 50 25.0049V24.9999Z" fill="#FFD313"/>
<path d="M100 24.9999C99.9993 18.3697 97.365 12.0114 92.6763 7.32345C87.9877 2.63554 81.6289 0.00210993 74.9987 0.00244144C68.3686 0.00277295 62.01 2.63684 57.3219 7.32521C52.6337 12.0136 50 18.3722 50 25.0024C50 31.6326 52.6337 37.9913 57.3219 42.6797C62.01 47.368 68.3686 50.0021 74.9987 50.0024C81.6289 50.0028 87.9877 47.3693 92.6763 42.6814C97.365 37.9935 99.9993 31.6351 100 25.0049V24.9999Z" fill="#08A887"/>
<path d="M100 74.9999C99.9993 68.3697 97.365 62.0114 92.6763 57.3234C87.9877 52.6355 81.6289 50.0021 74.9987 50.0024C68.3686 50.0028 62.01 52.6368 57.3219 57.3252C52.6337 62.0136 50 68.3722 50 75.0024C50 81.6326 52.6337 87.9913 57.3219 92.6797C62.01 97.368 68.3686 100.002 74.9987 100.002C81.6289 100.003 87.9877 97.3693 92.6763 92.6814C97.365 87.9935 99.9993 81.6351 100 75.0049V74.9999Z" fill="#F61710"/>
<path d="M0 100L0 75C0 70.0555 1.46622 65.222 4.21326 61.1108C6.96029 56.9995 10.8648 53.7952 15.4329 51.903C20.0011 50.0108 25.0277 49.5157 29.8773 50.4804C34.7268 51.445 39.1814 53.826 42.6777 57.3223C46.174 60.8187 48.555 65.2732 49.5196 70.1228C50.4843 74.9723 49.9892 79.9989 48.097 84.5671C46.2048 89.1353 43.0005 93.0397 38.8893 95.7868C34.778 98.5338 29.9445 100 25 100H0Z" fill="#0E448C"/>
</g>
<defs>
<clipPath id="clip0_9_1058">
<rect width="100" height="100" fill="white"/>
</clipPath>
</defs>
</svg>
