<svg width="100" height="100" viewBox="0 0 100 100" fill="none" xmlns="http://www.w3.org/2000/svg">
<g clip-path="url(#clip0_9_847)">
<path d="M50 0V25C50 31.6304 47.3661 37.9893 42.6777 42.6777C37.9893 47.3661 31.6304 50 25 50C18.3696 50 12.0107 47.3661 7.32233 42.6777C2.63392 37.9893 0 31.6304 0 25L0 0L50 0Z" fill="#F61710"/>
<path d="M50 50V75C50 81.6304 47.3661 87.9893 42.6777 92.6777C37.9893 97.3661 31.6304 100 25 100C18.3696 100 12.0107 97.3661 7.32233 92.6777C2.63392 87.9893 0 81.6304 0 75L0 50H50Z" fill="#FFD313"/>
<path d="M100 50H75C68.3696 50 62.0107 47.3661 57.3223 42.6777C52.6339 37.9893 50 31.6304 50 25C50 18.3696 52.6339 12.0107 57.3223 7.32233C62.0107 2.63392 68.3696 0 75 0L100 0V50Z" fill="#08A887"/>
<path d="M100 50V75C100 81.6304 97.3661 87.9893 92.6777 92.6777C87.9893 97.3661 81.6304 100 75 100C68.3696 100 62.0107 97.3661 57.3223 92.6777C52.6339 87.9893 50 81.6304 50 75V50H100Z" fill="#0E448C"/>
</g>
<defs>
<clipPath id="clip0_9_847">
<rect width="100" height="100" fill="white"/>
</clipPath>
</defs>
</svg>
