<svg width="100" height="100" viewBox="0 0 100 100" fill="none" xmlns="http://www.w3.org/2000/svg">
<g clip-path="url(#clip0_9_654)">
<path d="M0 50L0 25C0 20.0555 1.46622 15.222 4.21326 11.1108C6.96029 6.99953 10.8648 3.79521 15.4329 1.90302C20.0011 0.0108321 25.0277 -0.484251 29.8773 0.480379C34.7268 1.44501 39.1814 3.82603 42.6777 7.32234C46.174 10.8187 48.555 15.2732 49.5196 20.1228C50.4843 24.9723 49.9892 29.9989 48.097 34.5671C46.2048 39.1353 43.0005 43.0397 38.8893 45.7868C34.778 48.5338 29.9445 50 25 50H0Z" fill="#08A887"/>
<path d="M50 50V75C50 79.9445 48.5338 84.778 45.7868 88.8893C43.0397 93.0005 39.1353 96.2048 34.5671 98.097C29.9989 99.9892 24.9723 100.484 20.1228 99.5196C15.2732 98.555 10.8187 96.174 7.32234 92.6777C3.82603 89.1814 1.44501 84.7268 0.480379 79.8773C-0.484251 75.0277 0.0108321 70.0011 1.90302 65.4329C3.79521 60.8648 6.99953 56.9603 11.1108 54.2133C15.222 51.4662 20.0555 50 25 50H50Z" fill="#FFD313"/>
<path d="M50 50V25C50 20.0555 51.4662 15.222 54.2133 11.1108C56.9603 6.99953 60.8648 3.79521 65.4329 1.90302C70.0011 0.0108321 75.0277 -0.484251 79.8773 0.480379C84.7268 1.44501 89.1814 3.82603 92.6777 7.32234C96.174 10.8187 98.555 15.2732 99.5196 20.1228C100.484 24.9723 99.9892 29.9989 98.097 34.5671C96.2048 39.1353 93.0005 43.0397 88.8893 45.7868C84.778 48.5338 79.9445 50 75 50H50Z" fill="#0E448C"/>
<path d="M100 50V75C100 79.9445 98.5338 84.778 95.7868 88.8893C93.0397 93.0005 89.1353 96.2048 84.5671 98.097C79.9989 99.9892 74.9723 100.484 70.1228 99.5196C65.2732 98.555 60.8187 96.174 57.3223 92.6777C53.826 89.1814 51.445 84.7268 50.4804 79.8773C49.5157 75.0277 50.0108 70.0011 51.903 65.4329C53.7952 60.8648 56.9995 56.9603 61.1108 54.2133C65.222 51.4662 70.0555 50 75 50H100Z" fill="#F61710"/>
</g>
<defs>
<clipPath id="clip0_9_654">
<rect width="100" height="100" fill="white"/>
</clipPath>
</defs>
</svg>
