<svg width="100" height="100" viewBox="0 0 100 100" fill="none" xmlns="http://www.w3.org/2000/svg">
<g clip-path="url(#clip0_9_906)">
<path d="M50 0C50 13.2608 44.7322 25.9785 35.3553 35.3553C25.9785 44.7322 13.2608 50 0 50L0 0L50 0Z" fill="#FFD313"/>
<path d="M50 50C50 63.2608 44.7322 75.9785 35.3553 85.3553C25.9785 94.7322 13.2608 100 0 100L0 50H50Z" fill="#0E448C"/>
<path d="M100 50C86.7392 50 74.0215 44.7322 64.6447 35.3553C55.2678 25.9785 50 13.2608 50 0L100 0V50Z" fill="#08A887"/>
<path d="M100 100C86.7392 100 74.0215 94.7322 64.6447 85.3553C55.2678 75.9785 50 63.2608 50 50H100V100Z" fill="#F61710"/>
</g>
<defs>
<clipPath id="clip0_9_906">
<rect width="100" height="100" fill="white"/>
</clipPath>
</defs>
</svg>
